<svg xmlns="http://www.w3.org/2000/svg" xmlns:xlink="http://www.w3.org/1999/xlink" width="500" zoomAndPan="magnify" viewBox="0 0 375 374.999991" height="500" preserveAspectRatio="xMidYMid meet" version="1.0"><defs><g/><clipPath id="8f52c3111f"><path d="M 39 36 L 323 36 L 323 322 L 39 322 Z M 39 36 " clip-rule="nonzero"/></clipPath><clipPath id="49e5ab1e21"><path d="M 144.96875 -18.652344 L 322.160156 103.554688 L 160.777344 337.550781 L -16.414062 215.339844 Z M 144.96875 -18.652344 " clip-rule="nonzero"/></clipPath><clipPath id="e6e1d5e64d"><path d="M 144.96875 -18.652344 L 378.960938 142.730469 L 217.578125 376.722656 L -16.414062 215.339844 Z M 144.96875 -18.652344 " clip-rule="nonzero"/></clipPath><clipPath id="257efdca52"><path d="M 170 138 L 227 138 L 227 172 L 170 172 Z M 170 138 " clip-rule="nonzero"/></clipPath><clipPath id="b668a7f444"><path d="M 110.226562 142.957031 L 260.046875 135.613281 L 264.78125 232.25 L 114.960938 239.589844 Z M 110.226562 142.957031 " clip-rule="nonzero"/></clipPath><clipPath id="633e3853ce"><path d="M 110.226562 142.957031 L 260.046875 135.613281 L 264.78125 232.25 L 114.960938 239.589844 Z M 110.226562 142.957031 " clip-rule="nonzero"/></clipPath><clipPath id="679ae1bc15"><path d="M 110.226562 142.957031 L 260.046875 135.613281 L 264.78125 232.25 L 114.960938 239.589844 Z M 110.226562 142.957031 " clip-rule="nonzero"/></clipPath><clipPath id="b0479e6bcf"><path d="M 220 151 L 227 151 L 227 156 L 220 156 Z M 220 151 " clip-rule="nonzero"/></clipPath><clipPath id="c43be16533"><path d="M 110.226562 142.957031 L 260.046875 135.613281 L 264.78125 232.25 L 114.960938 239.589844 Z M 110.226562 142.957031 " clip-rule="nonzero"/></clipPath><clipPath id="315dad28f2"><path d="M 110.226562 142.957031 L 260.046875 135.613281 L 264.78125 232.25 L 114.960938 239.589844 Z M 110.226562 142.957031 " clip-rule="nonzero"/></clipPath><clipPath id="3e91f703aa"><path d="M 110.226562 142.957031 L 260.046875 135.613281 L 264.78125 232.25 L 114.960938 239.589844 Z M 110.226562 142.957031 " clip-rule="nonzero"/></clipPath><clipPath id="81c62214b5"><path d="M 194 143 L 227 143 L 227 156 L 194 156 Z M 194 143 " clip-rule="nonzero"/></clipPath><clipPath id="139514a727"><path d="M 110.226562 142.957031 L 260.046875 135.613281 L 264.78125 232.25 L 114.960938 239.589844 Z M 110.226562 142.957031 " clip-rule="nonzero"/></clipPath><clipPath id="ca7106e0f3"><path d="M 110.226562 142.957031 L 260.046875 135.613281 L 264.78125 232.25 L 114.960938 239.589844 Z M 110.226562 142.957031 " clip-rule="nonzero"/></clipPath><clipPath id="75e038b5a2"><path d="M 110.226562 142.957031 L 260.046875 135.613281 L 264.78125 232.25 L 114.960938 239.589844 Z M 110.226562 142.957031 " clip-rule="nonzero"/></clipPath><clipPath id="0b6c4fd6ce"><path d="M 118 209 L 136 209 L 136 238 L 118 238 Z M 118 209 " clip-rule="nonzero"/></clipPath><clipPath id="4d0126c157"><path d="M 110.226562 142.957031 L 260.046875 135.613281 L 264.78125 232.25 L 114.960938 239.589844 Z M 110.226562 142.957031 " clip-rule="nonzero"/></clipPath><clipPath id="e73c9b0ae0"><path d="M 110.226562 142.957031 L 260.046875 135.613281 L 264.78125 232.25 L 114.960938 239.589844 Z M 110.226562 142.957031 " clip-rule="nonzero"/></clipPath><clipPath id="1893bf89bb"><path d="M 110.226562 142.957031 L 260.046875 135.613281 L 264.78125 232.25 L 114.960938 239.589844 Z M 110.226562 142.957031 " clip-rule="nonzero"/></clipPath><clipPath id="44166d119d"><path d="M 116 207 L 138 207 L 138 240 L 116 240 Z M 116 207 " clip-rule="nonzero"/></clipPath><clipPath id="bba289c5f1"><path d="M 110.226562 142.957031 L 260.046875 135.613281 L 264.78125 232.25 L 114.960938 239.589844 Z M 110.226562 142.957031 " clip-rule="nonzero"/></clipPath><clipPath id="f799b07c50"><path d="M 110.226562 142.957031 L 260.046875 135.613281 L 264.78125 232.25 L 114.960938 239.589844 Z M 110.226562 142.957031 " clip-rule="nonzero"/></clipPath><clipPath id="5e9d626dbf"><path d="M 110.226562 142.957031 L 260.046875 135.613281 L 264.78125 232.25 L 114.960938 239.589844 Z M 110.226562 142.957031 " clip-rule="nonzero"/></clipPath><clipPath id="64d4695032"><path d="M 122 212 L 134 212 L 134 236 L 122 236 Z M 122 212 " clip-rule="nonzero"/></clipPath><clipPath id="70491a49e1"><path d="M 110.226562 142.957031 L 260.046875 135.613281 L 264.78125 232.25 L 114.960938 239.589844 Z M 110.226562 142.957031 " clip-rule="nonzero"/></clipPath><clipPath id="113ca0ba22"><path d="M 110.226562 142.957031 L 260.046875 135.613281 L 264.78125 232.25 L 114.960938 239.589844 Z M 110.226562 142.957031 " clip-rule="nonzero"/></clipPath><clipPath id="acc63f34d0"><path d="M 110.226562 142.957031 L 260.046875 135.613281 L 264.78125 232.25 L 114.960938 239.589844 Z M 110.226562 142.957031 " clip-rule="nonzero"/></clipPath><clipPath id="3efefd8882"><path d="M 157 168 L 192 168 L 192 197 L 157 197 Z M 157 168 " clip-rule="nonzero"/></clipPath><clipPath id="1c202be332"><path d="M 110.226562 142.957031 L 260.046875 135.613281 L 264.78125 232.25 L 114.960938 239.589844 Z M 110.226562 142.957031 " clip-rule="nonzero"/></clipPath><clipPath id="8c6d8f7690"><path d="M 110.226562 142.957031 L 260.046875 135.613281 L 264.78125 232.25 L 114.960938 239.589844 Z M 110.226562 142.957031 " clip-rule="nonzero"/></clipPath><clipPath id="c997aa995c"><path d="M 110.226562 142.957031 L 260.046875 135.613281 L 264.78125 232.25 L 114.960938 239.589844 Z M 110.226562 142.957031 " clip-rule="nonzero"/></clipPath><clipPath id="ffd2dfa85e"><path d="M 179 177 L 192 177 L 192 197 L 179 197 Z M 179 177 " clip-rule="nonzero"/></clipPath><clipPath id="82f3ee431a"><path d="M 110.226562 142.957031 L 260.046875 135.613281 L 264.78125 232.25 L 114.960938 239.589844 Z M 110.226562 142.957031 " clip-rule="nonzero"/></clipPath><clipPath id="2246670f89"><path d="M 110.226562 142.957031 L 260.046875 135.613281 L 264.78125 232.25 L 114.960938 239.589844 Z M 110.226562 142.957031 " clip-rule="nonzero"/></clipPath><clipPath id="411e47af59"><path d="M 110.226562 142.957031 L 260.046875 135.613281 L 264.78125 232.25 L 114.960938 239.589844 Z M 110.226562 142.957031 " clip-rule="nonzero"/></clipPath><clipPath id="17aa5c6060"><path d="M 133 146 L 201 146 L 201 227 L 133 227 Z M 133 146 " clip-rule="nonzero"/></clipPath><clipPath id="96410dc911"><path d="M 110.226562 142.957031 L 260.046875 135.613281 L 264.78125 232.25 L 114.960938 239.589844 Z M 110.226562 142.957031 " clip-rule="nonzero"/></clipPath><clipPath id="64acc06aa7"><path d="M 110.226562 142.957031 L 260.046875 135.613281 L 264.78125 232.25 L 114.960938 239.589844 Z M 110.226562 142.957031 " clip-rule="nonzero"/></clipPath><clipPath id="07bccd9ea3"><path d="M 110.226562 142.957031 L 260.046875 135.613281 L 264.78125 232.25 L 114.960938 239.589844 Z M 110.226562 142.957031 " clip-rule="nonzero"/></clipPath><clipPath id="d8f7cd6bef"><path d="M 131 145 L 202 145 L 202 229 L 131 229 Z M 131 145 " clip-rule="nonzero"/></clipPath><clipPath id="b17192dcb4"><path d="M 110.226562 142.957031 L 260.046875 135.613281 L 264.78125 232.25 L 114.960938 239.589844 Z M 110.226562 142.957031 " clip-rule="nonzero"/></clipPath><clipPath id="1f12e0ac64"><path d="M 110.226562 142.957031 L 260.046875 135.613281 L 264.78125 232.25 L 114.960938 239.589844 Z M 110.226562 142.957031 " clip-rule="nonzero"/></clipPath><clipPath id="c8d916a9f7"><path d="M 110.226562 142.957031 L 260.046875 135.613281 L 264.78125 232.25 L 114.960938 239.589844 Z M 110.226562 142.957031 " clip-rule="nonzero"/></clipPath><clipPath id="00e3b7d221"><path d="M 138 149 L 198 149 L 198 225 L 138 225 Z M 138 149 " clip-rule="nonzero"/></clipPath><clipPath id="98b9afc596"><path d="M 110.226562 142.957031 L 260.046875 135.613281 L 264.78125 232.25 L 114.960938 239.589844 Z M 110.226562 142.957031 " clip-rule="nonzero"/></clipPath><clipPath id="fa67fee30d"><path d="M 110.226562 142.957031 L 260.046875 135.613281 L 264.78125 232.25 L 114.960938 239.589844 Z M 110.226562 142.957031 " clip-rule="nonzero"/></clipPath><clipPath id="2324889500"><path d="M 110.226562 142.957031 L 260.046875 135.613281 L 264.78125 232.25 L 114.960938 239.589844 Z M 110.226562 142.957031 " clip-rule="nonzero"/></clipPath><clipPath id="536a4e7c75"><path d="M 153 147 L 201 147 L 201 227 L 153 227 Z M 153 147 " clip-rule="nonzero"/></clipPath><clipPath id="be6cf07cc2"><path d="M 110.226562 142.957031 L 260.046875 135.613281 L 264.78125 232.25 L 114.960938 239.589844 Z M 110.226562 142.957031 " clip-rule="nonzero"/></clipPath><clipPath id="17e7e86383"><path d="M 110.226562 142.957031 L 260.046875 135.613281 L 264.78125 232.25 L 114.960938 239.589844 Z M 110.226562 142.957031 " clip-rule="nonzero"/></clipPath><clipPath id="2f954492c0"><path d="M 110.226562 142.957031 L 260.046875 135.613281 L 264.78125 232.25 L 114.960938 239.589844 Z M 110.226562 142.957031 " clip-rule="nonzero"/></clipPath><clipPath id="e2204be30b"><path d="M 127 190 L 154 190 L 154 219 L 127 219 Z M 127 190 " clip-rule="nonzero"/></clipPath><clipPath id="193c5c58e4"><path d="M 110.226562 142.957031 L 260.046875 135.613281 L 264.78125 232.25 L 114.960938 239.589844 Z M 110.226562 142.957031 " clip-rule="nonzero"/></clipPath><clipPath id="4a82a103c6"><path d="M 110.226562 142.957031 L 260.046875 135.613281 L 264.78125 232.25 L 114.960938 239.589844 Z M 110.226562 142.957031 " clip-rule="nonzero"/></clipPath><clipPath id="4279415158"><path d="M 110.226562 142.957031 L 260.046875 135.613281 L 264.78125 232.25 L 114.960938 239.589844 Z M 110.226562 142.957031 " clip-rule="nonzero"/></clipPath><clipPath id="02fc96f48b"><path d="M 126 188 L 155 188 L 155 221 L 126 221 Z M 126 188 " clip-rule="nonzero"/></clipPath><clipPath id="f69a1fb459"><path d="M 110.226562 142.957031 L 260.046875 135.613281 L 264.78125 232.25 L 114.960938 239.589844 Z M 110.226562 142.957031 " clip-rule="nonzero"/></clipPath><clipPath id="e0767eb8dc"><path d="M 110.226562 142.957031 L 260.046875 135.613281 L 264.78125 232.25 L 114.960938 239.589844 Z M 110.226562 142.957031 " clip-rule="nonzero"/></clipPath><clipPath id="e33039b855"><path d="M 110.226562 142.957031 L 260.046875 135.613281 L 264.78125 232.25 L 114.960938 239.589844 Z M 110.226562 142.957031 " clip-rule="nonzero"/></clipPath><clipPath id="443ed1d2f9"><path d="M 133 200 L 152 200 L 152 217 L 133 217 Z M 133 200 " clip-rule="nonzero"/></clipPath><clipPath id="4628aa1919"><path d="M 110.226562 142.957031 L 260.046875 135.613281 L 264.78125 232.25 L 114.960938 239.589844 Z M 110.226562 142.957031 " clip-rule="nonzero"/></clipPath><clipPath id="469dd1b55e"><path d="M 110.226562 142.957031 L 260.046875 135.613281 L 264.78125 232.25 L 114.960938 239.589844 Z M 110.226562 142.957031 " clip-rule="nonzero"/></clipPath><clipPath id="bb8cc5c237"><path d="M 110.226562 142.957031 L 260.046875 135.613281 L 264.78125 232.25 L 114.960938 239.589844 Z M 110.226562 142.957031 " clip-rule="nonzero"/></clipPath><clipPath id="ad7e2d9761"><path d="M 228 154 L 259 154 L 259 189 L 228 189 Z M 228 154 " clip-rule="nonzero"/></clipPath><clipPath id="58d75bce9d"><path d="M 110.226562 142.957031 L 260.046875 135.613281 L 264.78125 232.25 L 114.960938 239.589844 Z M 110.226562 142.957031 " clip-rule="nonzero"/></clipPath><clipPath id="2f95931339"><path d="M 110.226562 142.957031 L 260.046875 135.613281 L 264.78125 232.25 L 114.960938 239.589844 Z M 110.226562 142.957031 " clip-rule="nonzero"/></clipPath><clipPath id="e91fc378df"><path d="M 110.226562 142.957031 L 260.046875 135.613281 L 264.78125 232.25 L 114.960938 239.589844 Z M 110.226562 142.957031 " clip-rule="nonzero"/></clipPath><clipPath id="b50ff4d929"><path d="M 226 152 L 260 152 L 260 190 L 226 190 Z M 226 152 " clip-rule="nonzero"/></clipPath><clipPath id="c72453870f"><path d="M 110.226562 142.957031 L 260.046875 135.613281 L 264.78125 232.25 L 114.960938 239.589844 Z M 110.226562 142.957031 " clip-rule="nonzero"/></clipPath><clipPath id="b2df3cdb4d"><path d="M 110.226562 142.957031 L 260.046875 135.613281 L 264.78125 232.25 L 114.960938 239.589844 Z M 110.226562 142.957031 " clip-rule="nonzero"/></clipPath><clipPath id="c1afbf5319"><path d="M 110.226562 142.957031 L 260.046875 135.613281 L 264.78125 232.25 L 114.960938 239.589844 Z M 110.226562 142.957031 " clip-rule="nonzero"/></clipPath><clipPath id="57c0abbd27"><path d="M 233 174 L 242 174 L 242 184 L 233 184 Z M 233 174 " clip-rule="nonzero"/></clipPath><clipPath id="2a29a8af23"><path d="M 110.226562 142.957031 L 260.046875 135.613281 L 264.78125 232.25 L 114.960938 239.589844 Z M 110.226562 142.957031 " clip-rule="nonzero"/></clipPath><clipPath id="ccb19ce420"><path d="M 110.226562 142.957031 L 260.046875 135.613281 L 264.78125 232.25 L 114.960938 239.589844 Z M 110.226562 142.957031 " clip-rule="nonzero"/></clipPath><clipPath id="9ac97a813f"><path d="M 110.226562 142.957031 L 260.046875 135.613281 L 264.78125 232.25 L 114.960938 239.589844 Z M 110.226562 142.957031 " clip-rule="nonzero"/></clipPath><clipPath id="9669f7a7a6"><path d="M 229 155 L 257 155 L 257 187 L 229 187 Z M 229 155 " clip-rule="nonzero"/></clipPath><clipPath id="8d4c81f348"><path d="M 110.226562 142.957031 L 260.046875 135.613281 L 264.78125 232.25 L 114.960938 239.589844 Z M 110.226562 142.957031 " clip-rule="nonzero"/></clipPath><clipPath id="d0bd12da05"><path d="M 110.226562 142.957031 L 260.046875 135.613281 L 264.78125 232.25 L 114.960938 239.589844 Z M 110.226562 142.957031 " clip-rule="nonzero"/></clipPath><clipPath id="f9d3053cbb"><path d="M 110.226562 142.957031 L 260.046875 135.613281 L 264.78125 232.25 L 114.960938 239.589844 Z M 110.226562 142.957031 " clip-rule="nonzero"/></clipPath><clipPath id="e48d3b3c5d"><path d="M 229 155 L 257 155 L 257 184 L 229 184 Z M 229 155 " clip-rule="nonzero"/></clipPath><clipPath id="53f526d335"><path d="M 110.226562 142.957031 L 260.046875 135.613281 L 264.78125 232.25 L 114.960938 239.589844 Z M 110.226562 142.957031 " clip-rule="nonzero"/></clipPath><clipPath id="504a76c6ff"><path d="M 110.226562 142.957031 L 260.046875 135.613281 L 264.78125 232.25 L 114.960938 239.589844 Z M 110.226562 142.957031 " clip-rule="nonzero"/></clipPath><clipPath id="4a20f61eff"><path d="M 110.226562 142.957031 L 260.046875 135.613281 L 264.78125 232.25 L 114.960938 239.589844 Z M 110.226562 142.957031 " clip-rule="nonzero"/></clipPath><clipPath id="d60069f7fc"><path d="M 149 159 L 180 159 L 180 183 L 149 183 Z M 149 159 " clip-rule="nonzero"/></clipPath><clipPath id="34e48db119"><path d="M 110.226562 142.957031 L 260.046875 135.613281 L 264.78125 232.25 L 114.960938 239.589844 Z M 110.226562 142.957031 " clip-rule="nonzero"/></clipPath><clipPath id="0633f0b05a"><path d="M 110.226562 142.957031 L 260.046875 135.613281 L 264.78125 232.25 L 114.960938 239.589844 Z M 110.226562 142.957031 " clip-rule="nonzero"/></clipPath><clipPath id="6f3b6f42d9"><path d="M 110.226562 142.957031 L 260.046875 135.613281 L 264.78125 232.25 L 114.960938 239.589844 Z M 110.226562 142.957031 " clip-rule="nonzero"/></clipPath></defs><g clip-path="url(#8f52c3111f)"><g clip-path="url(#49e5ab1e21)"><g clip-path="url(#e6e1d5e64d)"><path fill="#ffffff" d="M 100.582031 296.03125 C 35.945312 251.453125 19.945312 162.621094 64.277344 98.34375 C 108.605469 34.066406 197.328125 17.457031 261.964844 62.039062 C 326.601562 106.617188 342.851562 195.089844 298.269531 259.726562 C 253.691406 324.363281 164.859375 340.363281 100.582031 296.03125 Z M 256.984375 69.257812 C 196.320312 27.417969 113.339844 42.660156 71.5 103.324219 C 29.660156 163.988281 44.898438 246.96875 105.5625 288.808594 C 166.230469 330.652344 249.210938 315.410156 291.050781 254.746094 C 332.890625 194.082031 317.289062 110.851562 256.984375 69.257812 Z M 256.984375 69.257812 " fill-opacity="1" fill-rule="nonzero"/></g></g></g><g clip-path="url(#257efdca52)"><g clip-path="url(#b668a7f444)"><g clip-path="url(#633e3853ce)"><g clip-path="url(#679ae1bc15)"><path fill="#415bb2" d="M 224.066406 154.363281 C 222.644531 155.492188 220.71875 155.941406 218.839844 155.414062 L 203.722656 151.144531 L 179.515625 170.222656 C 176.964844 172.234375 173.269531 171.792969 171.265625 169.234375 C 169.253906 166.679688 169.695312 162.976562 172.25 160.964844 L 198.808594 140.03125 C 200.285156 138.875 202.222656 138.488281 204.035156 138.996094 L 222.023438 144.074219 C 225.144531 144.957031 226.964844 148.203125 226.085938 151.335938 C 225.738281 152.582031 225.015625 153.625 224.066406 154.363281 " fill-opacity="1" fill-rule="nonzero"/></g></g></g></g><g clip-path="url(#b0479e6bcf)"><g clip-path="url(#c43be16533)"><g clip-path="url(#315dad28f2)"><g clip-path="url(#3e91f703aa)"><path fill="#415bb2" d="M 220.71875 155.625 C 221.925781 155.566406 223.070312 155.132812 224.007812 154.417969 C 223.066406 155.132812 221.925781 155.566406 220.71875 155.625 M 224.039062 154.386719 C 224.050781 154.382812 224.054688 154.375 224.066406 154.363281 C 225.015625 153.625 225.738281 152.582031 226.085938 151.335938 C 225.738281 152.582031 225.015625 153.625 224.066406 154.363281 C 224.054688 154.375 224.050781 154.382812 224.039062 154.386719 " fill-opacity="1" fill-rule="nonzero"/></g></g></g></g><g clip-path="url(#81c62214b5)"><g clip-path="url(#139514a727)"><g clip-path="url(#ca7106e0f3)"><g clip-path="url(#75e038b5a2)"><path fill="#2d3f9d" d="M 220.71875 155.625 C 220.105469 155.65625 219.472656 155.585938 218.839844 155.414062 L 203.722656 151.144531 L 198.113281 155.566406 L 194.277344 150.691406 L 203.351562 143.535156 L 218.464844 147.804688 C 219.097656 147.980469 219.730469 148.046875 220.347656 148.015625 C 221.574219 147.957031 222.75 147.511719 223.695312 146.761719 C 224.078125 146.460938 224.410156 146.101562 224.703125 145.710938 C 226.066406 147.164062 226.664062 149.265625 226.09375 151.328125 C 226.09375 151.332031 226.09375 151.332031 226.085938 151.335938 C 225.738281 152.582031 225.015625 153.625 224.066406 154.363281 C 224.054688 154.375 224.050781 154.382812 224.039062 154.386719 C 224.03125 154.398438 224.019531 154.40625 224.007812 154.417969 C 223.070312 155.132812 221.925781 155.566406 220.71875 155.625 " fill-opacity="1" fill-rule="nonzero"/></g></g></g></g><g clip-path="url(#0b6c4fd6ce)"><g clip-path="url(#4d0126c157)"><g clip-path="url(#e73c9b0ae0)"><g clip-path="url(#1893bf89bb)"><path fill="#56c6c8" d="M 121.929688 237.511719 C 121.242188 237.542969 120.601562 237.152344 120.316406 236.519531 C 116.234375 227.496094 118.8125 216.910156 126.585938 210.78125 C 127.511719 210.054688 128.621094 209.636719 129.796875 209.578125 C 131.621094 209.488281 133.386719 210.296875 134.519531 211.734375 C 135.453125 212.921875 135.867188 214.402344 135.6875 215.902344 C 135.511719 217.410156 134.753906 218.753906 133.570312 219.6875 C 131.445312 221.355469 130.105469 223.765625 129.78125 226.460938 C 129.457031 229.15625 130.207031 231.8125 131.871094 233.9375 L 132.1875 234.339844 C 132.578125 234.839844 132.65625 235.511719 132.398438 236.085938 C 132.140625 236.65625 131.578125 237.039062 130.945312 237.066406 L 121.929688 237.511719 " fill-opacity="1" fill-rule="nonzero"/></g></g></g></g><g clip-path="url(#44166d119d)"><g clip-path="url(#bba289c5f1)"><g clip-path="url(#f799b07c50)"><g clip-path="url(#5e9d626dbf)"><path fill="#445eb4" d="M 129.714844 207.894531 C 128.191406 207.96875 126.746094 208.511719 125.542969 209.460938 C 117.160156 216.0625 114.382812 227.476562 118.785156 237.21875 C 119.351562 238.476562 120.636719 239.261719 122.015625 239.195312 L 131.027344 238.753906 C 132.289062 238.691406 133.410156 237.933594 133.925781 236.78125 C 134.453125 235.636719 134.285156 234.289062 133.507812 233.300781 L 133.195312 232.894531 C 131.808594 231.121094 131.1875 228.90625 131.453125 226.660156 C 131.71875 224.410156 132.84375 222.410156 134.609375 221.011719 C 136.148438 219.796875 137.125 218.054688 137.355469 216.109375 C 137.589844 214.15625 137.046875 212.234375 135.839844 210.695312 C 134.375 208.824219 132.082031 207.777344 129.714844 207.894531 M 129.878906 211.261719 C 131.121094 211.203125 132.367188 211.726562 133.195312 212.777344 C 134.554688 214.5 134.253906 217.003906 132.527344 218.359375 C 127.414062 222.394531 126.519531 229.851562 130.550781 234.984375 L 130.863281 235.382812 L 121.847656 235.824219 C 118.1875 227.726562 120.34375 217.847656 127.625 212.109375 C 128.300781 211.582031 129.089844 211.300781 129.878906 211.261719 " fill-opacity="1" fill-rule="nonzero"/></g></g></g></g><g clip-path="url(#64d4695032)"><g clip-path="url(#70491a49e1)"><g clip-path="url(#113ca0ba22)"><g clip-path="url(#acc63f34d0)"><path fill="#18938d" d="M 130.863281 235.382812 L 127.007812 235.574219 C 126.570312 232.09375 124.867188 228.992188 122.398438 226.707031 C 126.824219 224.003906 129.730469 219.003906 129.460938 213.527344 C 129.441406 213.125 129.40625 212.714844 129.351562 212.320312 L 133.371094 217.445312 C 133.148438 217.785156 132.863281 218.097656 132.527344 218.359375 C 129.402344 220.820312 127.855469 224.5625 128.039062 228.261719 C 128.160156 230.628906 128.976562 232.984375 130.550781 234.984375 L 130.863281 235.382812 " fill-opacity="1" fill-rule="nonzero"/></g></g></g></g><g clip-path="url(#3efefd8882)"><g clip-path="url(#1c202be332)"><g clip-path="url(#8c6d8f7690)"><g clip-path="url(#c997aa995c)"><path fill="#445eb4" d="M 172.28125 184.046875 C 173.34375 183.207031 174.890625 183.390625 175.730469 184.457031 L 185.320312 196.679688 L 190.34375 192.71875 C 191.410156 191.875 191.597656 190.328125 190.753906 189.253906 L 175.125 169.332031 C 174.28125 168.261719 172.730469 168.074219 171.667969 168.921875 L 158.757812 179.09375 C 157.6875 179.933594 157.511719 181.480469 158.351562 182.550781 L 164.402344 190.257812 L 172.28125 184.046875 " fill-opacity="1" fill-rule="nonzero"/></g></g></g></g><g clip-path="url(#ffd2dfa85e)"><g clip-path="url(#82f3ee431a)"><g clip-path="url(#2246670f89)"><g clip-path="url(#411e47af59)"><path fill="#2e3f9d" d="M 185.320312 196.679688 L 183.8125 194.75 L 186.769531 192.417969 C 187.839844 191.578125 188.023438 190.023438 187.183594 188.953125 L 179.707031 179.421875 L 181.769531 177.800781 L 190.753906 189.253906 C 191.082031 189.671875 191.257812 190.164062 191.28125 190.660156 C 191.320312 191.429688 190.992188 192.203125 190.34375 192.71875 L 185.320312 196.679688 " fill-opacity="1" fill-rule="nonzero"/></g></g></g></g><g clip-path="url(#17aa5c6060)"><g clip-path="url(#96410dc911)"><g clip-path="url(#64acc06aa7)"><g clip-path="url(#07bccd9ea3)"><path fill="#56c6c8" d="M 170.335938 192.109375 C 168.34375 189.566406 168.78125 185.890625 171.316406 183.890625 L 200.277344 161.0625 L 190.878906 149.082031 C 188.886719 146.542969 185.214844 146.109375 182.675781 148.105469 L 135.4375 185.335938 C 132.902344 187.335938 132.457031 191.015625 134.457031 193.554688 L 158.589844 224.308594 C 160.582031 226.847656 164.253906 227.292969 166.792969 225.292969 L 185.074219 210.882812 L 170.335938 192.109375 " fill-opacity="1" fill-rule="nonzero"/></g></g></g></g><g clip-path="url(#d8f7cd6bef)"><g clip-path="url(#b17192dcb4)"><g clip-path="url(#1f12e0ac64)"><g clip-path="url(#c8d916a9f7)"><path fill="#445eb4" d="M 170.335938 192.109375 L 171.664062 191.0625 C 171.105469 190.351562 170.816406 189.527344 170.777344 188.699219 C 170.746094 188.046875 170.863281 187.394531 171.128906 186.792969 C 171.394531 186.195312 171.800781 185.660156 172.359375 185.21875 L 201.320312 162.390625 C 201.667969 162.113281 201.898438 161.703125 201.953125 161.265625 C 202.003906 160.824219 201.878906 160.371094 201.605469 160.023438 L 192.207031 148.046875 C 191.421875 147.046875 190.433594 146.296875 189.355469 145.816406 C 188.269531 145.332031 187.089844 145.117188 185.921875 145.171875 C 184.414062 145.246094 182.90625 145.777344 181.636719 146.777344 L 134.394531 184.011719 C 133.40625 184.792969 132.652344 185.78125 132.171875 186.867188 C 131.691406 187.949219 131.472656 189.132812 131.53125 190.3125 C 131.605469 191.816406 132.132812 193.328125 133.132812 194.601562 L 157.269531 225.355469 C 158.046875 226.347656 159.035156 227.097656 160.117188 227.578125 C 161.203125 228.058594 162.378906 228.277344 163.554688 228.222656 C 165.054688 228.148438 166.5625 227.617188 167.832031 226.617188 L 186.117188 212.210938 C 186.460938 211.933594 186.695312 211.523438 186.746094 211.082031 C 186.796875 210.640625 186.675781 210.191406 186.398438 209.839844 L 171.664062 191.0625 L 170.335938 192.109375 L 169.011719 193.144531 L 182.710938 210.597656 L 165.75 223.964844 C 165.039062 224.523438 164.222656 224.8125 163.390625 224.851562 C 162.738281 224.882812 162.082031 224.765625 161.484375 224.496094 C 160.886719 224.230469 160.351562 223.824219 159.914062 223.265625 L 135.777344 192.511719 C 135.222656 191.800781 134.933594 190.984375 134.894531 190.144531 C 134.859375 189.496094 134.980469 188.835938 135.25 188.238281 C 135.511719 187.640625 135.921875 187.101562 136.472656 186.664062 L 183.714844 149.429688 C 184.429688 148.871094 185.25 148.582031 186.085938 148.542969 C 186.734375 148.511719 187.386719 148.628906 187.984375 148.894531 C 188.582031 149.164062 189.117188 149.574219 189.554688 150.128906 L 197.917969 160.785156 L 170.273438 182.570312 C 169.285156 183.351562 168.535156 184.339844 168.054688 185.425781 C 167.574219 186.507812 167.359375 187.683594 167.414062 188.863281 C 167.488281 190.367188 168.011719 191.878906 169.011719 193.144531 L 170.335938 192.109375 " fill-opacity="1" fill-rule="nonzero"/></g></g></g></g><g clip-path="url(#00e3b7d221)"><g clip-path="url(#98b9afc596)"><g clip-path="url(#fa67fee30d)"><g clip-path="url(#2324889500)"><path fill="#18938d" d="M 163.390625 224.851562 C 162.738281 224.882812 162.082031 224.765625 161.484375 224.496094 C 160.886719 224.230469 160.351562 223.824219 159.914062 223.265625 L 154.574219 216.46875 C 155.210938 215.316406 155.136719 213.851562 154.277344 212.757812 L 138.652344 192.855469 C 141.160156 192.316406 143.621094 191.636719 146.0625 190.613281 C 151.433594 188.339844 156.8125 185.683594 161.675781 182.410156 C 168.730469 177.671875 175.824219 171.671875 180.949219 164.777344 C 184.652344 159.796875 187.453125 154.902344 188.660156 149.277344 C 188.992188 149.507812 189.292969 149.792969 189.554688 150.128906 L 197.917969 160.785156 L 170.273438 182.570312 C 169.285156 183.351562 168.535156 184.339844 168.054688 185.425781 C 167.574219 186.507812 167.359375 187.683594 167.414062 188.863281 C 167.488281 190.367188 168.011719 191.878906 169.011719 193.144531 L 182.710938 210.597656 L 165.75 223.964844 C 165.039062 224.523438 164.222656 224.8125 163.390625 224.851562 " fill-opacity="1" fill-rule="nonzero"/></g></g></g></g><g clip-path="url(#536a4e7c75)"><g clip-path="url(#be6cf07cc2)"><g clip-path="url(#17e7e86383)"><g clip-path="url(#2f954492c0)"><path fill="#234c7c" d="M 163.472656 226.535156 C 161.644531 226.625 159.804688 225.859375 158.589844 224.308594 L 153.417969 217.71875 L 153.710938 217.492188 C 154.078125 217.203125 154.363281 216.855469 154.574219 216.46875 L 159.914062 223.265625 C 160.351562 223.824219 160.886719 224.230469 161.484375 224.496094 C 162.082031 224.765625 162.738281 224.882812 163.390625 224.851562 C 164.222656 224.8125 165.039062 224.523438 165.75 223.964844 L 182.710938 210.597656 L 169.011719 193.144531 C 168.011719 191.878906 167.488281 190.367188 167.414062 188.863281 C 167.359375 187.683594 167.574219 186.507812 168.054688 185.425781 C 168.535156 184.339844 169.285156 183.351562 170.273438 182.570312 L 197.917969 160.785156 L 189.554688 150.128906 C 189.292969 149.792969 188.992188 149.507812 188.660156 149.277344 C 188.78125 148.695312 188.894531 148.113281 188.984375 147.515625 C 189.699219 147.886719 190.347656 148.410156 190.878906 149.082031 L 200.277344 161.0625 L 171.316406 183.890625 C 168.78125 185.890625 168.34375 189.566406 170.335938 192.109375 L 185.074219 210.882812 L 166.792969 225.292969 C 165.800781 226.066406 164.640625 226.480469 163.472656 226.535156 " fill-opacity="1" fill-rule="nonzero"/></g></g></g></g><g clip-path="url(#e2204be30b)"><g clip-path="url(#193c5c58e4)"><g clip-path="url(#4a82a103c6)"><g clip-path="url(#4279415158)"><path fill="#fabd42" d="M 143.320312 218.546875 C 142.25 218.597656 141.207031 218.175781 140.480469 217.394531 C 140.410156 217.460938 140.335938 217.527344 140.257812 217.585938 C 139.660156 218.054688 138.945312 218.328125 138.183594 218.363281 C 137.007812 218.421875 135.871094 217.898438 135.144531 216.972656 L 128.472656 208.472656 C 127.234375 206.894531 127.507812 204.589844 129.082031 203.34375 C 129.164062 203.289062 129.238281 203.230469 129.320312 203.175781 C 128.847656 202.453125 128.648438 201.601562 128.75 200.738281 C 128.867188 199.769531 129.351562 198.90625 130.113281 198.300781 L 130.207031 198.234375 C 129.019531 196.121094 129.515625 193.386719 131.476562 191.839844 L 132.773438 190.820312 C 133.050781 190.601562 133.386719 190.472656 133.734375 190.457031 C 133.824219 190.453125 133.917969 190.457031 134.015625 190.472656 C 134.457031 190.523438 134.859375 190.75 135.140625 191.101562 L 152.949219 213.796875 C 153.527344 214.527344 153.398438 215.59375 152.667969 216.167969 L 151.371094 217.1875 C 150.546875 217.835938 149.566406 218.207031 148.523438 218.257812 C 147.515625 218.308594 146.519531 218.046875 145.675781 217.53125 C 145.585938 217.613281 145.492188 217.695312 145.394531 217.773438 C 144.796875 218.242188 144.078125 218.507812 143.320312 218.546875 " fill-opacity="1" fill-rule="nonzero"/></g></g></g></g><g clip-path="url(#02fc96f48b)"><g clip-path="url(#f69a1fb459)"><g clip-path="url(#e0767eb8dc)"><g clip-path="url(#e33039b855)"><path fill="#445eb4" d="M 133.652344 188.773438 C 132.957031 188.804688 132.285156 189.058594 131.730469 189.492188 L 130.433594 190.515625 C 128.179688 192.292969 127.375 195.242188 128.210938 197.835938 C 127.589844 198.605469 127.199219 199.535156 127.078125 200.535156 C 126.988281 201.296875 127.058594 202.046875 127.277344 202.757812 C 125.667969 204.648438 125.558594 207.488281 127.152344 209.515625 L 133.820312 218.015625 C 134.886719 219.371094 136.554688 220.132812 138.269531 220.050781 C 139.023438 220.011719 139.75 219.820312 140.414062 219.480469 C 141.296875 220.011719 142.34375 220.28125 143.402344 220.230469 C 144.277344 220.1875 145.121094 219.9375 145.863281 219.492188 C 146.726562 219.832031 147.660156 219.988281 148.609375 219.941406 C 150.003906 219.875 151.316406 219.382812 152.414062 218.515625 L 153.710938 217.492188 C 155.171875 216.339844 155.425781 214.222656 154.277344 212.757812 L 136.460938 190.058594 C 135.910156 189.355469 135.101562 188.898438 134.214844 188.796875 C 134.023438 188.769531 133.835938 188.761719 133.652344 188.773438 M 133.816406 192.140625 L 151.625 214.839844 L 150.328125 215.867188 C 149.765625 216.3125 149.109375 216.539062 148.441406 216.574219 C 147.40625 216.625 146.363281 216.183594 145.671875 215.308594 L 145.054688 214.519531 C 145.191406 215.222656 144.953125 215.972656 144.351562 216.445312 C 144.023438 216.703125 143.632812 216.84375 143.238281 216.863281 C 142.628906 216.890625 142.007812 216.636719 141.601562 216.121094 L 139.546875 213.503906 C 140.21875 214.359375 140.070312 215.585938 139.214844 216.257812 C 138.886719 216.523438 138.5 216.660156 138.101562 216.679688 C 137.492188 216.710938 136.871094 216.453125 136.464844 215.925781 L 129.796875 207.433594 C 129.125 206.578125 129.273438 205.34375 130.121094 204.671875 C 130.457031 204.40625 130.84375 204.269531 131.242188 204.25 C 131.851562 204.21875 132.46875 204.484375 132.878906 205.003906 L 130.824219 202.386719 C 130.15625 201.535156 130.308594 200.300781 131.15625 199.628906 C 131.480469 199.371094 131.867188 199.234375 132.253906 199.214844 C 132.574219 199.203125 132.890625 199.261719 133.183594 199.394531 L 131.960938 197.839844 C 130.824219 196.390625 131.074219 194.300781 132.511719 193.167969 L 133.816406 192.140625 " fill-opacity="1" fill-rule="nonzero"/></g></g></g></g><g clip-path="url(#443ed1d2f9)"><g clip-path="url(#4628aa1919)"><g clip-path="url(#469dd1b55e)"><g clip-path="url(#bb8cc5c237)"><path fill="#f57b1f" d="M 143.238281 216.863281 C 142.628906 216.890625 142.007812 216.636719 141.601562 216.121094 L 139.546875 213.503906 C 139.8125 213.832031 139.949219 214.226562 139.96875 214.617188 C 139.992188 215.230469 139.734375 215.851562 139.214844 216.257812 C 138.886719 216.523438 138.5 216.660156 138.101562 216.679688 C 137.492188 216.710938 136.871094 216.453125 136.464844 215.925781 L 133.734375 212.449219 C 137.402344 209.605469 139.917969 205.328125 140.417969 200.558594 L 151.625 214.839844 L 150.328125 215.867188 C 149.765625 216.3125 149.109375 216.539062 148.441406 216.574219 C 147.40625 216.625 146.363281 216.183594 145.671875 215.308594 L 145.054688 214.519531 C 145.074219 214.621094 145.089844 214.714844 145.09375 214.8125 C 145.117188 215.425781 144.867188 216.039062 144.351562 216.445312 C 144.023438 216.703125 143.632812 216.84375 143.238281 216.863281 " fill-opacity="1" fill-rule="nonzero"/><path fill="#4c4c54" d="M 143.238281 216.863281 C 142.628906 216.890625 142.007812 216.636719 141.601562 216.121094 L 139.546875 213.503906 L 141.601562 216.121094 C 142.007812 216.636719 142.628906 216.890625 143.238281 216.863281 C 143.632812 216.84375 144.023438 216.703125 144.351562 216.445312 C 144.867188 216.039062 145.117188 215.425781 145.09375 214.8125 C 145.117188 215.425781 144.867188 216.039062 144.351562 216.445312 C 144.023438 216.703125 143.632812 216.84375 143.238281 216.863281 M 148.441406 216.574219 C 147.40625 216.625 146.363281 216.183594 145.671875 215.308594 L 145.054688 214.519531 L 145.671875 215.308594 C 146.363281 216.183594 147.40625 216.625 148.441406 216.574219 C 149.109375 216.539062 149.765625 216.3125 150.328125 215.867188 L 151.625 214.839844 L 150.328125 215.867188 C 149.765625 216.3125 149.109375 216.539062 148.441406 216.574219 M 138.101562 216.679688 C 137.492188 216.710938 136.871094 216.453125 136.464844 215.925781 L 133.734375 212.449219 L 136.464844 215.925781 C 136.871094 216.453125 137.492188 216.710938 138.101562 216.679688 C 138.5 216.660156 138.886719 216.523438 139.214844 216.257812 C 139.734375 215.851562 139.992188 215.230469 139.96875 214.617188 C 139.992188 215.230469 139.734375 215.851562 139.214844 216.257812 C 138.886719 216.523438 138.5 216.660156 138.101562 216.679688 M 151.625 214.839844 L 140.417969 200.558594 L 151.625 214.839844 " fill-opacity="1" fill-rule="nonzero"/></g></g></g></g><g clip-path="url(#ad7e2d9761)"><g clip-path="url(#58d75bce9d)"><g clip-path="url(#2f95931339)"><g clip-path="url(#e91fc378df)"><path fill="#fabd42" d="M 244.988281 188.082031 C 243.140625 188.175781 241.3125 187.890625 239.5625 187.246094 C 234.671875 185.441406 231.242188 181.097656 230.605469 175.90625 L 228.242188 156.203125 C 228.171875 155.613281 228.40625 155.039062 228.867188 154.675781 C 229.148438 154.453125 229.484375 154.328125 229.828125 154.3125 C 230.050781 154.300781 230.277344 154.335938 230.496094 154.414062 L 249.082031 161.253906 C 256.226562 163.886719 259.914062 171.855469 257.289062 179.019531 C 255.378906 184.253906 250.546875 187.8125 244.988281 188.082031 " fill-opacity="1" fill-rule="nonzero"/></g></g></g></g><g clip-path="url(#b50ff4d929)"><g clip-path="url(#c72453870f)"><g clip-path="url(#b2df3cdb4d)"><g clip-path="url(#c1afbf5319)"><path fill="#445eb4" d="M 229.746094 152.628906 C 229.054688 152.660156 228.382812 152.910156 227.824219 153.351562 C 226.90625 154.078125 226.429688 155.234375 226.570312 156.402344 L 228.933594 176.097656 C 229.648438 181.933594 233.496094 186.8125 238.984375 188.832031 C 240.949219 189.554688 243 189.871094 245.070312 189.769531 C 251.308594 189.460938 256.71875 185.472656 258.867188 179.609375 C 261.808594 171.5625 257.679688 162.621094 249.65625 159.671875 L 231.070312 152.832031 C 230.640625 152.671875 230.191406 152.605469 229.746094 152.628906 M 229.910156 155.996094 L 248.496094 162.835938 C 254.789062 165.152344 258.019531 172.136719 255.710938 178.445312 C 253.980469 183.167969 249.628906 186.167969 244.90625 186.398438 C 243.332031 186.476562 241.714844 186.246094 240.140625 185.664062 C 235.71875 184.035156 232.808594 180.085938 232.273438 175.699219 L 229.910156 155.996094 " fill-opacity="1" fill-rule="nonzero"/></g></g></g></g><g clip-path="url(#57c0abbd27)"><g clip-path="url(#2a29a8af23)"><g clip-path="url(#ccb19ce420)"><g clip-path="url(#9ac97a813f)"><path fill="#ffffff" d="M 240.640625 180.574219 C 239.621094 180.203125 238.792969 179.566406 238.175781 178.769531 C 237.5625 177.976562 237.167969 177.023438 237.046875 176.023438 C 236.933594 175.09375 236.09375 174.4375 235.171875 174.550781 C 234.246094 174.664062 233.589844 175.503906 233.703125 176.429688 C 233.898438 178.039062 234.53125 179.5625 235.519531 180.84375 C 236.503906 182.117188 237.855469 183.148438 239.476562 183.742188 C 240.347656 184.0625 241.316406 183.613281 241.636719 182.738281 C 241.960938 181.867188 241.507812 180.898438 240.640625 180.574219 " fill-opacity="1" fill-rule="nonzero"/></g></g></g></g><g clip-path="url(#9669f7a7a6)"><g clip-path="url(#8d4c81f348)"><g clip-path="url(#d0bd12da05)"><g clip-path="url(#f9d3053cbb)"><path fill="#f57b1f" d="M 244.910156 186.394531 C 243.824219 186.445312 242.714844 186.355469 241.613281 186.097656 C 241.773438 185.984375 241.9375 185.863281 242.101562 185.738281 C 247.699219 181.292969 248.675781 172.890625 244.246094 167.277344 C 241.539062 163.851562 237.371094 162.15625 233.257812 162.355469 C 232.402344 162.398438 231.554688 162.519531 230.722656 162.726562 L 229.910156 155.996094 L 248.496094 162.835938 C 253.214844 164.574219 256.210938 168.9375 256.441406 173.671875 C 256.519531 175.25 256.285156 176.863281 255.710938 178.445312 C 255.023438 180.324219 253.914062 181.933594 252.535156 183.199219 C 250.453125 185.113281 247.753906 186.253906 244.910156 186.394531 " fill-opacity="1" fill-rule="nonzero"/></g></g></g></g><g clip-path="url(#e48d3b3c5d)"><g clip-path="url(#53f526d335)"><g clip-path="url(#504a76c6ff)"><g clip-path="url(#4a20f61eff)"><path fill="#4c4c54" d="M 252.535156 183.199219 C 253.914062 181.933594 255.023438 180.324219 255.710938 178.445312 C 256.285156 176.863281 256.519531 175.25 256.441406 173.671875 C 256.519531 175.25 256.285156 176.863281 255.710938 178.445312 C 255.023438 180.324219 253.914062 181.933594 252.535156 183.199219 M 230.722656 162.726562 L 229.910156 155.996094 L 230.722656 162.726562 " fill-opacity="1" fill-rule="nonzero"/></g></g></g></g><g clip-path="url(#d60069f7fc)"><g clip-path="url(#34e48db119)"><g clip-path="url(#0633f0b05a)"><g clip-path="url(#6f3b6f42d9)"><path fill="#ffffff" d="M 152.453125 182.429688 L 179.273438 162.503906 C 180.015625 161.949219 180.167969 160.886719 179.617188 160.144531 C 179.0625 159.394531 178.011719 159.238281 177.261719 159.792969 L 150.449219 179.726562 C 149.703125 180.28125 149.546875 181.335938 150.101562 182.085938 C 150.652344 182.828125 151.710938 182.988281 152.453125 182.429688 " fill-opacity="1" fill-rule="nonzero"/></g></g></g></g><g fill="#ffffff" fill-opacity="1"><g transform="translate(181.56759, 328.81292)"><g><path d="M 12.328125 -2.5625 L 12.3125 0.0625 L 1.609375 0.015625 L 1.6875 -15.390625 L 12.1875 -15.34375 L 12.171875 -12.71875 L 4.65625 -12.75 L 4.640625 -9.046875 L 11.140625 -9.015625 L 11.125 -6.578125 L 4.625 -6.609375 L 4.609375 -2.59375 Z M 12.328125 -2.5625 "/></g></g></g><g fill="#ffffff" fill-opacity="1"><g transform="translate(204.551364, 328.174532)"><g><path d="M 1.59375 -0.265625 L -1 -15.453125 L 4.5 -16.390625 C 5.75 -16.609375 6.875 -16.59375 7.875 -16.34375 C 8.875 -16.101562 9.742188 -15.695312 10.484375 -15.125 C 11.234375 -14.550781 11.84375 -13.832031 12.3125 -12.96875 C 12.789062 -12.101562 13.117188 -11.144531 13.296875 -10.09375 C 13.492188 -8.945312 13.492188 -7.875 13.296875 -6.875 C 13.097656 -5.882812 12.726562 -5 12.1875 -4.21875 C 11.644531 -3.445312 10.945312 -2.800781 10.09375 -2.28125 C 9.238281 -1.757812 8.238281 -1.398438 7.09375 -1.203125 Z M 10.3125 -9.59375 C 10.1875 -10.320312 9.972656 -10.972656 9.671875 -11.546875 C 9.367188 -12.128906 8.984375 -12.609375 8.515625 -12.984375 C 8.054688 -13.367188 7.523438 -13.628906 6.921875 -13.765625 C 6.328125 -13.910156 5.671875 -13.921875 4.953125 -13.796875 L 2.390625 -13.359375 L 4.09375 -3.359375 L 6.65625 -3.796875 C 7.382812 -3.921875 8.007812 -4.160156 8.53125 -4.515625 C 9.050781 -4.867188 9.460938 -5.300781 9.765625 -5.8125 C 10.066406 -6.332031 10.265625 -6.914062 10.359375 -7.5625 C 10.453125 -8.207031 10.4375 -8.882812 10.3125 -9.59375 Z M 10.3125 -9.59375 "/></g></g></g><g fill="#ffffff" fill-opacity="1"><g transform="translate(229.537295, 322.96089)"><g><path d="M 0.359375 -16.53125 L 2.859375 -17.4375 L 13.625 -4.953125 L 10.734375 -3.90625 L 8.078125 -7.015625 L 3 -5.171875 L 3 -1.09375 L 0.109375 -0.03125 Z M 6.84375 -8.8125 L 2.78125 -13.78125 L 2.75 -7.328125 Z M 6.84375 -8.8125 "/></g></g></g><g fill="#ffffff" fill-opacity="1"><g transform="translate(252.249192, 313.742904)"><g><path d="M 1.390625 -0.796875 L -6.28125 -14.15625 L -0.609375 -17.40625 C 0.00390625 -17.757812 0.644531 -17.957031 1.3125 -18 C 1.988281 -18.039062 2.632812 -17.957031 3.25 -17.75 C 3.863281 -17.550781 4.429688 -17.25 4.953125 -16.84375 C 5.472656 -16.4375 5.882812 -15.960938 6.1875 -15.421875 C 6.507812 -14.859375 6.722656 -14.25 6.828125 -13.59375 C 6.929688 -12.945312 6.921875 -12.3125 6.796875 -11.6875 C 6.679688 -11.0625 6.4375 -10.476562 6.0625 -9.9375 C 5.6875 -9.394531 5.191406 -8.945312 4.578125 -8.59375 L 1.40625 -6.765625 L 3.984375 -2.28125 Z M 0.109375 -9.046875 L 3.125 -10.78125 C 3.59375 -11.050781 3.875 -11.472656 3.96875 -12.046875 C 4.070312 -12.617188 3.929688 -13.238281 3.546875 -13.90625 C 3.359375 -14.25 3.132812 -14.523438 2.875 -14.734375 C 2.625 -14.953125 2.363281 -15.101562 2.09375 -15.1875 C 1.820312 -15.28125 1.546875 -15.304688 1.265625 -15.265625 C 0.992188 -15.234375 0.75 -15.15625 0.53125 -15.03125 L -2.375 -13.359375 Z M 0.109375 -9.046875 "/></g></g></g><g fill="#ffffff" fill-opacity="1"><g transform="translate(271.862859, 301.395457)"><g/></g></g><g fill="#ffffff" fill-opacity="1"><g transform="translate(283.496739, 291.996304)"><g><path d="M 7.296875 -10.0625 C 7.328125 -8.320312 6.773438 -6.863281 5.640625 -5.6875 C 4.929688 -4.957031 4.117188 -4.410156 3.203125 -4.046875 C 2.296875 -3.691406 1.359375 -3.523438 0.390625 -3.546875 C -0.566406 -3.566406 -1.523438 -3.769531 -2.484375 -4.15625 C -3.441406 -4.550781 -4.320312 -5.140625 -5.125 -5.921875 C -5.882812 -6.648438 -6.460938 -7.472656 -6.859375 -8.390625 C -7.265625 -9.316406 -7.488281 -10.265625 -7.53125 -11.234375 C -7.570312 -12.210938 -7.421875 -13.171875 -7.078125 -14.109375 C -6.742188 -15.054688 -6.203125 -15.914062 -5.453125 -16.6875 C -4.453125 -17.726562 -3.375 -18.40625 -2.21875 -18.71875 C -1.0625 -19.039062 0.0625 -19.035156 1.15625 -18.703125 L 0.8125 -15.953125 C -0.03125 -16.203125 -0.835938 -16.210938 -1.609375 -15.984375 C -2.390625 -15.753906 -3.066406 -15.347656 -3.640625 -14.765625 C -4.085938 -14.296875 -4.398438 -13.769531 -4.578125 -13.1875 C -4.765625 -12.613281 -4.816406 -12.019531 -4.734375 -11.40625 C -4.648438 -10.800781 -4.457031 -10.207031 -4.15625 -9.625 C -3.863281 -9.039062 -3.46875 -8.503906 -2.96875 -8.015625 C -2.445312 -7.523438 -1.878906 -7.140625 -1.265625 -6.859375 C -0.648438 -6.585938 -0.0351562 -6.4375 0.578125 -6.40625 C 1.191406 -6.382812 1.785156 -6.476562 2.359375 -6.6875 C 2.941406 -6.90625 3.457031 -7.25 3.90625 -7.71875 C 4.945312 -8.78125 5.378906 -10.234375 5.203125 -12.078125 L 4.421875 -12.84375 L 2.265625 -10.609375 L 0.6875 -12.125 L 4.5625 -16.140625 L 10.265625 -10.640625 L 8.546875 -8.859375 Z M 7.296875 -10.0625 "/></g></g></g><g fill="#ffffff" fill-opacity="1"><g transform="translate(300.664889, 272.84024)"><g><path d="M -9.515625 -13.515625 L -8.046875 -15.71875 L 8.03125 -12.078125 L 6.328125 -9.515625 L 2.328125 -10.4375 L -0.65625 -5.953125 L 1.765625 -2.65625 L 0.0625 -0.09375 Z M 0.28125 -11.15625 L -5.9375 -12.734375 L -2.125 -7.53125 Z M 0.28125 -11.15625 "/></g></g></g><g fill="#ffffff" fill-opacity="1"><g transform="translate(313.478324, 251.952901)"><g><path d="M -6.046875 -14.453125 C -6.179688 -14.410156 -6.378906 -14.296875 -6.640625 -14.109375 C -6.910156 -13.929688 -7.195312 -13.703125 -7.5 -13.421875 C -7.8125 -13.148438 -8.113281 -12.828125 -8.40625 -12.453125 C -8.695312 -12.085938 -8.929688 -11.695312 -9.109375 -11.28125 C -9.441406 -10.53125 -9.550781 -9.90625 -9.4375 -9.40625 C -9.332031 -8.914062 -9.023438 -8.554688 -8.515625 -8.328125 C -8.222656 -8.203125 -7.945312 -8.164062 -7.6875 -8.21875 C -7.4375 -8.28125 -7.179688 -8.410156 -6.921875 -8.609375 C -6.660156 -8.816406 -6.378906 -9.09375 -6.078125 -9.4375 C -5.785156 -9.789062 -5.457031 -10.203125 -5.09375 -10.671875 C -4.601562 -11.273438 -4.128906 -11.8125 -3.671875 -12.28125 C -3.210938 -12.75 -2.734375 -13.109375 -2.234375 -13.359375 C -1.742188 -13.609375 -1.226562 -13.738281 -0.6875 -13.75 C -0.15625 -13.769531 0.429688 -13.640625 1.078125 -13.359375 C 1.828125 -13.023438 2.410156 -12.59375 2.828125 -12.0625 C 3.242188 -11.539062 3.507812 -10.96875 3.625 -10.34375 C 3.738281 -9.71875 3.734375 -9.054688 3.609375 -8.359375 C 3.484375 -7.671875 3.265625 -6.976562 2.953125 -6.28125 C 2.484375 -5.226562 1.863281 -4.253906 1.09375 -3.359375 C 0.320312 -2.472656 -0.53125 -1.742188 -1.46875 -1.171875 L -3.3125 -3.421875 C -3.125 -3.492188 -2.863281 -3.640625 -2.53125 -3.859375 C -2.207031 -4.085938 -1.859375 -4.367188 -1.484375 -4.703125 C -1.109375 -5.046875 -0.738281 -5.445312 -0.375 -5.90625 C -0.0078125 -6.363281 0.289062 -6.863281 0.53125 -7.40625 C 1.195312 -8.914062 1.039062 -9.882812 0.0625 -10.3125 C -0.226562 -10.445312 -0.519531 -10.472656 -0.8125 -10.390625 C -1.101562 -10.316406 -1.394531 -10.15625 -1.6875 -9.90625 C -1.988281 -9.65625 -2.304688 -9.332031 -2.640625 -8.9375 C -2.972656 -8.550781 -3.34375 -8.113281 -3.75 -7.625 C -4.226562 -7.03125 -4.6875 -6.535156 -5.125 -6.140625 C -5.5625 -5.742188 -6 -5.445312 -6.4375 -5.25 C -6.882812 -5.050781 -7.335938 -4.953125 -7.796875 -4.953125 C -8.265625 -4.960938 -8.769531 -5.085938 -9.3125 -5.328125 C -10.019531 -5.640625 -10.59375 -6.046875 -11.03125 -6.546875 C -11.476562 -7.054688 -11.785156 -7.628906 -11.953125 -8.265625 C -12.117188 -8.910156 -12.15625 -9.585938 -12.0625 -10.296875 C -11.976562 -11.003906 -11.78125 -11.710938 -11.46875 -12.421875 C -11.03125 -13.410156 -10.472656 -14.253906 -9.796875 -14.953125 C -9.117188 -15.660156 -8.429688 -16.226562 -7.734375 -16.65625 Z M -6.046875 -14.453125 "/></g></g></g><g fill="#ffffff" fill-opacity="1"><g transform="translate(322.191267, 230.357134)"><g><path d="M 2.03125 -7.921875 C 1.769531 -6.816406 1.3125 -5.867188 0.65625 -5.078125 C 0.0078125 -4.296875 -0.738281 -3.671875 -1.59375 -3.203125 C -2.457031 -2.742188 -3.390625 -2.445312 -4.390625 -2.3125 C -5.398438 -2.1875 -6.378906 -2.238281 -7.328125 -2.46875 C -8.328125 -2.707031 -9.234375 -3.125 -10.046875 -3.71875 C -10.867188 -4.320312 -11.550781 -5.03125 -12.09375 -5.84375 C -12.644531 -6.664062 -13.019531 -7.578125 -13.21875 -8.578125 C -13.414062 -9.585938 -13.390625 -10.617188 -13.140625 -11.671875 C -12.878906 -12.753906 -12.421875 -13.6875 -11.765625 -14.46875 C -11.109375 -15.25 -10.34375 -15.867188 -9.46875 -16.328125 C -8.601562 -16.796875 -7.664062 -17.09375 -6.65625 -17.21875 C -5.65625 -17.351562 -4.679688 -17.304688 -3.734375 -17.078125 C -2.742188 -16.835938 -1.84375 -16.421875 -1.03125 -15.828125 C -0.21875 -15.242188 0.457031 -14.546875 1 -13.734375 C 1.550781 -12.921875 1.925781 -12.007812 2.125 -11 C 2.320312 -10 2.289062 -8.972656 2.03125 -7.921875 Z M -6.609375 -5.421875 C -5.960938 -5.265625 -5.3125 -5.207031 -4.65625 -5.25 C -4.007812 -5.300781 -3.410156 -5.457031 -2.859375 -5.71875 C -2.304688 -5.976562 -1.820312 -6.34375 -1.40625 -6.8125 C -1 -7.289062 -0.710938 -7.875 -0.546875 -8.5625 C -0.367188 -9.257812 -0.359375 -9.914062 -0.515625 -10.53125 C -0.671875 -11.144531 -0.941406 -11.695312 -1.328125 -12.1875 C -1.722656 -12.675781 -2.195312 -13.085938 -2.75 -13.421875 C -3.300781 -13.765625 -3.882812 -14.007812 -4.5 -14.15625 C -5.144531 -14.3125 -5.789062 -14.359375 -6.4375 -14.296875 C -7.09375 -14.234375 -7.695312 -14.070312 -8.25 -13.8125 C -8.8125 -13.5625 -9.296875 -13.195312 -9.703125 -12.71875 C -10.109375 -12.238281 -10.394531 -11.660156 -10.5625 -10.984375 C -10.726562 -10.285156 -10.734375 -9.625 -10.578125 -9 C -10.421875 -8.382812 -10.148438 -7.835938 -9.765625 -7.359375 C -9.378906 -6.878906 -8.910156 -6.472656 -8.359375 -6.140625 C -7.804688 -5.804688 -7.222656 -5.566406 -6.609375 -5.421875 Z M -6.609375 -5.421875 "/></g></g></g><g fill="#ffffff" fill-opacity="1"><g transform="translate(327.373491, 204.516642)"><g><path d="M 0.09375 -1.609375 L -15.28125 -2.5625 L -15.09375 -5.53125 L -2.34375 -4.734375 L -1.859375 -12.578125 L 0.765625 -12.421875 Z M 0.09375 -1.609375 "/></g></g></g><g fill="#ffffff" fill-opacity="1"><g transform="translate(327.860347, 182.184867)"><g><path d="M -0.125 -1.609375 L -15.484375 -0.4375 L -15.703125 -3.40625 L -0.34375 -4.578125 Z M -0.125 -1.609375 "/></g></g></g><g fill="#ffffff" fill-opacity="1"><g transform="translate(326.299649, 166.254841)"><g><path d="M -10.65625 -2.234375 L -1.03125 -4.46875 L -0.359375 -1.5625 L -15.359375 1.921875 L -15.890625 -0.34375 L -7.859375 -10.4375 L -17.703125 -8.15625 L -18.375 -11.078125 L -3.375 -14.5625 L -2.828125 -12.1875 Z M -10.65625 -2.234375 "/></g></g></g><g fill="#ffffff" fill-opacity="1"><g transform="translate(319.296664, 140.674337)"><g><path d="M -7.265625 -10.28125 L -4.859375 -11.3125 L -0.640625 -1.484375 L -14.796875 4.59375 L -18.9375 -5.046875 L -16.53125 -6.078125 L -13.5625 0.828125 L -10.15625 -0.640625 L -12.71875 -6.609375 L -10.46875 -7.5625 L -7.90625 -1.59375 L -4.21875 -3.1875 Z M -7.265625 -10.28125 "/></g></g></g></svg>